<svg width="40" height="40" viewBox="0 0 40 40" fill="none" xmlns="http://www.w3.org/2000/svg">
<path d="M35.1576 26.6322V12.4217L23.3155 5.76074M16.6839 5.76074L4.8418 12.4217V26.6322M7.6839 31.0735L19.9997 38.0006L27.5786 33.7375L32.3155 31.0725M19.9997 14.3164V7.68485M25.6839 23.7901L32.3155 27.5796M14.3155 23.7901L7.6839 27.5796M17.1576 15.9743L14.3155 17.6322V24.2638L17.1576 25.9217L19.9997 27.5796L22.8418 25.9217L25.6839 24.2638V17.6322L22.8418 15.9743L19.9997 14.3164L17.1576 15.9743Z" stroke="black" stroke-width="3" stroke-linecap="round" stroke-linejoin="round"/>
<path d="M20.0003 7.68421C21.57 7.68421 22.8424 6.41176 22.8424 4.84211C22.8424 3.27245 21.57 2 20.0003 2C18.4307 2 17.1582 3.27245 17.1582 4.84211C17.1582 6.41176 18.4307 7.68421 20.0003 7.68421Z" stroke="black" stroke-width="3" stroke-linecap="round" stroke-linejoin="round"/>
<path d="M4.84211 32.316C6.41176 32.316 7.68421 31.0436 7.68421 29.4739C7.68421 27.9043 6.41176 26.6318 4.84211 26.6318C3.27245 26.6318 2 27.9043 2 29.4739C2 31.0436 3.27245 32.316 4.84211 32.316Z" stroke="black" stroke-width="3" stroke-linecap="round" stroke-linejoin="round"/>
<path d="M35.1575 32.316C36.7272 32.316 37.9996 31.0436 37.9996 29.4739C37.9996 27.9043 36.7272 26.6318 35.1575 26.6318C33.5879 26.6318 32.3154 27.9043 32.3154 29.4739C32.3154 31.0436 33.5879 32.316 35.1575 32.316Z" stroke="black" stroke-width="3" stroke-linecap="round" stroke-linejoin="round"/>
</svg>
