<svg width="49" height="49" viewBox="0 0 49 49" fill="none" xmlns="http://www.w3.org/2000/svg">
<path d="M19.0556 0H2.72222C2.00024 0 1.30784 0.286805 0.79732 0.79732C0.286805 1.30784 0 2.00024 0 2.72222V19.0556C0 19.7775 0.286805 20.4699 0.79732 20.9805C1.30784 21.491 2.00024 21.7778 2.72222 21.7778H19.0556C19.7775 21.7778 20.4699 21.491 20.9805 20.9805C21.491 20.4699 21.7778 19.7775 21.7778 19.0556V2.72222C21.7778 2.00024 21.491 1.30784 20.9805 0.79732C20.4699 0.286805 19.7775 0 19.0556 0V0ZM16.3333 16.3333H5.44444V5.44444H16.3333V16.3333ZM46.2778 27.2222H29.9444C29.2225 27.2222 28.5301 27.509 28.0195 28.0195C27.509 28.5301 27.2222 29.2225 27.2222 29.9444V46.2778C27.2222 46.9998 27.509 47.6922 28.0195 48.2027C28.5301 48.7132 29.2225 49 29.9444 49H46.2778C46.9998 49 47.6922 48.7132 48.2027 48.2027C48.7132 47.6922 49 46.9998 49 46.2778V29.9444C49 29.2225 48.7132 28.5301 48.2027 28.0195C47.6922 27.509 46.9998 27.2222 46.2778 27.2222ZM43.5556 43.5556H32.6667V32.6667H43.5556V43.5556ZM38.1111 0C32.1059 0 27.2222 4.88367 27.2222 10.8889C27.2222 16.8941 32.1059 21.7778 38.1111 21.7778C44.1163 21.7778 49 16.8941 49 10.8889C49 4.88367 44.1163 0 38.1111 0ZM38.1111 16.3333C35.1085 16.3333 32.6667 13.8915 32.6667 10.8889C32.6667 7.88628 35.1085 5.44444 38.1111 5.44444C41.1137 5.44444 43.5556 7.88628 43.5556 10.8889C43.5556 13.8915 41.1137 16.3333 38.1111 16.3333ZM10.8889 27.2222C4.88367 27.2222 0 32.1059 0 38.1111C0 44.1163 4.88367 49 10.8889 49C16.8941 49 21.7778 44.1163 21.7778 38.1111C21.7778 32.1059 16.8941 27.2222 10.8889 27.2222ZM10.8889 43.5556C7.88628 43.5556 5.44444 41.1137 5.44444 38.1111C5.44444 35.1085 7.88628 32.6667 10.8889 32.6667C13.8915 32.6667 16.3333 35.1085 16.3333 38.1111C16.3333 41.1137 13.8915 43.5556 10.8889 43.5556Z" fill="url(#paint0_linear_641_368)"/>
<defs>
<linearGradient id="paint0_linear_641_368" x1="46.7264" y1="27.6337" x2="21.6163" y2="35.0698" gradientUnits="userSpaceOnUse">
<stop offset="0.109896" stop-color="#9D65C9"/>
<stop offset="0.328646" stop-color="#F6851B"/>
<stop offset="0.620312" stop-color="#E85AFF"/>
<stop offset="0.859896" stop-color="#F6851B"/>
</linearGradient>
</defs>
</svg>
