<svg width="36" height="35" viewBox="0 0 36 35" fill="none" xmlns="http://www.w3.org/2000/svg">
<path d="M31.3643 33.986L31.3645 33.9856L31.2115 33.8901L31.2036 33.8852L31.2038 33.8849L28.1973 31.7374L25.1908 33.8849L25.1907 33.885C24.991 34.0275 24.7586 34.1155 24.5157 34.1403C24.2727 34.1651 24.0277 34.1258 23.8041 34.0264C23.5805 33.9269 23.3859 33.7707 23.2388 33.573C23.0917 33.3754 22.9967 33.1428 22.9628 32.8974L22.9613 32.8867L22.9617 32.8866L22.9498 32.7042L22.9492 32.6945H22.9495V24.7551C22.0858 23.7381 21.5229 22.4911 21.3267 21.1595C21.1278 19.8092 21.3142 18.4289 21.8639 17.1841C22.4135 15.9392 23.3032 14.8823 24.4265 14.1406C25.55 13.3989 26.8592 13.0041 28.1972 13.0038L31.3643 33.986ZM31.3643 33.986L31.3748 33.9915L31.3643 33.986ZM28.837 28.6642L28.8367 28.6647L29.0066 28.769L29.0156 28.7744L29.0153 28.7747L30.597 29.9033V26.7684C29.8292 27.0569 29.0167 27.2045 28.1973 27.2036M28.837 28.6642L27.3807 28.7749L25.7976 29.9034V26.7684C26.5654 27.0569 27.3779 27.2045 28.1973 27.2036M28.837 28.6642L28.8251 28.6583M28.837 28.6642L28.8251 28.6583M28.1973 27.2036C28.1974 27.2036 28.1974 27.2036 28.1975 27.2036L28.1973 27.0536L28.1971 27.2036C28.1972 27.2036 28.1972 27.2036 28.1973 27.2036ZM28.8251 28.6583C28.5962 28.5443 28.3414 28.4949 28.0872 28.5154C27.8331 28.536 27.5893 28.6256 27.381 28.7747L28.8251 28.6583ZM30.747 26.5481C30.6973 26.5686 30.6472 26.5886 30.597 26.6079L30.747 26.7101V26.5481ZM35.1381 5.48122L35.1381 5.48122L35.1379 5.47662C35.0629 4.22516 34.5236 3.0494 33.629 2.18941C32.7343 1.32932 31.5517 0.849938 30.3221 0.85H5.67454V0.849931L5.66998 0.850069L5.3844 0.858756L5.3844 0.858679L5.3796 0.858979C4.15234 0.935748 3.00066 1.48811 2.15922 2.40237C1.31787 3.31652 0.849939 4.52367 0.85 5.77745V22.2814H0.849936L0.850064 22.2858L0.858564 22.5759L0.858495 22.5759L0.858764 22.5804C0.933282 23.8322 1.47238 25.0084 2.36702 25.8688C3.26175 26.7292 4.44468 27.2088 5.67454 27.2088H21.3963H21.5461L21.5463 27.059L21.548 25.3113L21.548 25.2618L21.5186 25.222L21.4 25.0615L21.1765 24.7273L20.9695 24.3782L20.9259 24.3047L20.8404 24.3047L5.67875 24.3029L5.46884 24.2912C4.47813 24.1882 3.69975 23.3293 3.69975 22.2814V5.78089L3.7096 5.56611C3.76065 5.06889 3.98982 4.60916 4.35214 4.27517C4.71535 3.94038 5.18655 3.75565 5.67447 3.75588H5.67454H30.3185L30.5281 3.76593C31.0119 3.81789 31.4606 4.05094 31.7874 4.42129C32.1153 4.79279 32.2971 5.27596 32.2969 5.77738V5.77749L32.2986 12.5788L32.2986 12.6643L32.3722 12.7079C33.3479 13.2854 34.2 14.0581 34.8775 14.9799L35.1484 15.3486L35.1483 14.8911L35.1466 5.77742H35.1467L35.1466 5.77308L35.1381 5.48122ZM32.4486 12.5788L32.4469 5.77745L32.4486 12.5788ZM16.7235 17.347H16.7234H9.0742V17.3466L9.0637 17.3473L8.89032 17.3595L8.8903 17.3591L8.87993 17.3606C8.52136 17.411 8.19568 17.5985 7.96827 17.8842C7.74094 18.1698 7.62853 18.5324 7.65301 18.8987C7.6775 19.265 7.83715 19.6088 8.10065 19.8605C8.36424 20.1122 8.71213 20.2527 9.07415 20.2528H9.0742H16.7234V20.2532L16.7339 20.2525L16.9073 20.2403L16.9073 20.2407L16.9177 20.2392C17.2763 20.1888 17.602 20.0013 17.8294 19.7156C18.0567 19.43 18.1691 19.0674 18.1446 18.7011C18.1201 18.3348 17.9605 17.991 17.697 17.7394C17.4334 17.4877 17.0855 17.3471 16.7235 17.347ZM26.9225 7.79207H26.9224H9.0742V7.7917L9.0637 7.79243L8.89032 7.8046L8.89029 7.80423L8.87993 7.80569C8.52136 7.85611 8.19568 8.04365 7.96827 8.32935C7.74094 8.61495 7.62853 8.97753 7.65301 9.34382C7.6775 9.71013 7.83715 10.0539 8.10065 10.3056C8.36424 10.5573 8.71213 10.6978 9.07415 10.6979H9.0742H26.9224V10.6983L26.9329 10.6976L27.1063 10.6854L27.1063 10.6858L27.1167 10.6843C27.4753 10.6339 27.8009 10.4464 28.0284 10.1607C28.2557 9.87506 28.3681 9.51249 28.3436 9.1462C28.3191 8.77989 28.1595 8.43607 27.896 8.18446C27.6324 7.93276 27.2845 7.79218 26.9225 7.79207ZM31.9707 14.1393C30.8464 13.3976 29.5361 13.0032 28.1973 13.0038L33.2968 32.6945H33.4468V32.6942V24.7586C34.3117 23.7416 34.8755 22.4941 35.0723 21.1618C35.2718 19.8108 35.0854 18.4296 34.5354 17.184C33.9854 15.9383 33.095 14.881 31.9707 14.1393ZM25.299 17.1369C26.0683 16.3508 27.1109 15.9097 28.1973 15.9097C29.2837 15.9097 30.3263 16.3508 31.0956 17.1369C31.8649 17.9232 32.2977 18.9904 32.2977 20.1037C32.2977 21.2171 31.8649 22.2842 31.0956 23.0705C30.3263 23.8567 29.2837 24.2977 28.1973 24.2977C27.1109 24.2977 26.0683 23.8567 25.299 23.0705C24.5297 22.2842 24.0969 21.2171 24.0969 20.1037C24.0969 18.9904 24.5297 17.9232 25.299 17.1369Z" fill="black" stroke="black" stroke-width="0.3"/>
</svg>
