<svg width="33" height="36" viewBox="0 0 33 36" fill="none" xmlns="http://www.w3.org/2000/svg">
<path d="M14.917 2.69274C15.3949 2.42735 15.9325 2.28809 16.4792 2.28809C17.0258 2.28809 17.5634 2.42735 18.0413 2.69274L30.1314 9.40786C30.3821 9.54724 30.5909 9.75111 30.7363 9.99833C30.8817 10.2455 30.9583 10.5271 30.9583 10.8139V24.0624C30.9582 24.6362 30.8046 25.1995 30.5136 25.6939C30.2225 26.1884 29.8045 26.596 29.3029 26.8746L18.0413 33.1328C17.5634 33.3982 17.0258 33.5374 16.4792 33.5374C15.9325 33.5374 15.3949 33.3982 14.917 33.1328L3.65545 26.8746C3.15408 26.5961 2.73624 26.1888 2.44518 25.6946C2.15412 25.2005 2.00042 24.6375 2 24.064V10.8139C1.99999 10.5271 2.07665 10.2455 2.22204 9.99833C2.36743 9.75111 2.57627 9.54724 2.82692 9.40786L14.9186 2.69274H14.917Z" stroke="black" stroke-width="3" stroke-linecap="round" stroke-linejoin="round"/>
<path d="M9.24034 5.8457L23.7195 13.8897V19.5205M6.82715 18.4394L11.6535 21.1293" stroke="black" stroke-width="3" stroke-linecap="round" stroke-linejoin="round"/>
<path d="M2 9.86816L16.4792 17.9121M16.4792 17.9121L30.9583 9.86816M16.4792 17.9121V34.0001" stroke="black" stroke-width="3" stroke-linejoin="round"/>
</svg>
