<svg width="44" height="44" viewBox="0 0 44 44" fill="none" xmlns="http://www.w3.org/2000/svg">
<path d="M3.27795 15.2292L3.27815 15.2293L16.2412 23.2439C14.3826 24.4005 12.9104 26.0934 12.0241 28.1066C11.0462 30.3279 10.8375 32.8121 11.4311 35.1655C12.0247 37.5188 13.3866 39.6067 15.3011 41.0984C17.2156 42.59 19.5731 43.4 22 43.4C24.4269 43.4 26.7844 42.59 28.6989 41.0984C30.6134 39.6067 31.9753 37.5188 32.5689 35.1655C33.1625 32.8121 32.9538 30.3279 31.9759 28.1066C31.0896 26.0934 29.6174 24.4005 27.7588 23.2439L40.7218 15.2293L40.7219 15.2293C41.5403 14.7231 42.2159 14.0162 42.6846 13.1757C43.1533 12.3351 43.3995 11.3888 43.4 10.4265V10.4263V6.25042C43.4 4.75185 42.8047 3.31464 41.7452 2.25498C40.6856 1.19532 39.2485 0.6 37.75 0.6H6.25C4.75152 0.6 3.31441 1.19532 2.25484 2.25498C1.19526 3.31464 0.6 4.75185 0.6 6.25042V10.4263C0.6 12.3855 1.61717 14.201 3.27795 15.2292ZM15.4 4.90028H28.6V17.6694L22.7101 21.3114L22.7101 21.3115C22.4967 21.4434 22.2508 21.5133 22 21.5133C21.7491 21.5133 21.5033 21.4434 21.2899 21.3115L21.2899 21.3114L15.4 17.6694V4.90028ZM4.9 6.25042C4.9 5.89233 5.04224 5.54892 5.29542 5.29572C5.54859 5.04252 5.89197 4.90028 6.25 4.90028H11.1V15.0116L5.53991 11.5737C5.5399 11.5737 5.53988 11.5737 5.53986 11.5737C5.34433 11.4527 5.18292 11.2838 5.07094 11.083C4.95898 10.8822 4.90014 10.6562 4.9 10.4263C4.9 10.4262 4.9 10.4261 4.9 10.4261L4.9 6.25042ZM38.4601 11.5737L32.9 15.0116V4.90028H37.75C38.108 4.90028 38.4514 5.04252 38.7046 5.29572C38.9578 5.54891 39.1 5.89233 39.1 6.25042V10.4261C39.0999 10.656 39.041 10.8821 38.9291 11.083C38.8171 11.2838 38.6557 11.4527 38.4601 11.5737C38.4601 11.5737 38.4601 11.5737 38.4601 11.5737ZM15.4 32.5025C15.4 30.7519 16.0954 29.0731 17.3331 27.8352C18.5708 26.5974 20.2496 25.902 22 25.902C23.7504 25.902 25.4291 26.5974 26.6669 27.8352C27.9046 29.0731 28.6 30.7519 28.6 32.5025C28.6 34.2531 27.9046 35.932 26.6669 37.1698C25.4291 38.4077 23.7504 39.1031 22 39.1031C20.2496 39.1031 18.5708 38.4077 17.3331 37.1698C16.0954 35.932 15.4 34.2531 15.4 32.5025Z" fill="url(#paint0_linear_649_372)" stroke="url(#paint1_linear_649_372)" stroke-width="0.8"/>
<defs>
<linearGradient id="paint0_linear_649_372" x1="41.0512" y1="24.686" x2="19.5283" y2="31.0598" gradientUnits="userSpaceOnUse">
<stop offset="0.109896" stop-color="#9D65C9"/>
<stop offset="0.328646" stop-color="#F6851B"/>
<stop offset="0.620312" stop-color="#E85AFF"/>
<stop offset="0.859896" stop-color="#F6851B"/>
</linearGradient>
<linearGradient id="paint1_linear_649_372" x1="41.0512" y1="24.686" x2="19.5283" y2="31.0598" gradientUnits="userSpaceOnUse">
<stop offset="0.109896" stop-color="#9D65C9"/>
<stop offset="0.328646" stop-color="#F6851B"/>
<stop offset="0.620312" stop-color="#E85AFF"/>
<stop offset="0.859896" stop-color="#F6851B"/>
</linearGradient>
</defs>
</svg>
