<svg width="44" height="50" viewBox="0 0 44 50" fill="none" xmlns="http://www.w3.org/2000/svg">
<path d="M21.8123 37.7365C21.8249 37.7366 21.8374 37.736 21.8498 37.7348C24.4942 37.7221 27.0274 36.6661 28.8981 34.7955C30.7773 32.9162 31.8345 30.3683 31.8376 27.7106V27.7102V17.3539C31.8376 17.2024 31.752 17.0639 31.6164 16.9961L21.9917 12.1837C21.879 12.1274 21.7465 12.1274 21.6339 12.1837L12.0091 16.9961C11.8736 17.0639 11.788 17.2024 11.788 17.3539L11.788 27.7118L11.788 27.7122C11.7911 30.3699 12.8482 32.9178 14.7275 34.7971C16.6067 36.6763 19.1546 37.7334 21.8123 37.7365ZM15.7962 27.7118V19.5822L21.8128 16.5739L27.8293 19.5822V27.7118C27.8293 29.3074 27.1954 30.8378 26.0671 31.9661C24.9388 33.0944 23.4085 33.7283 21.8128 33.7283C20.2171 33.7283 18.6868 33.0944 17.5584 31.9661C16.4301 30.8378 15.7962 29.3074 15.7962 27.7118Z" fill="url(#paint0_linear_644_370)" stroke="url(#paint1_linear_644_370)" stroke-width="0.8" stroke-linejoin="round"/>
<path d="M21.8127 49.4004C22.1675 49.4006 22.5161 49.3065 22.8226 49.1277L22.8227 49.1277L42.0723 37.8988L42.0723 37.8988C42.3749 37.7222 42.6259 37.4694 42.8003 37.1656C42.9747 36.8618 43.0665 36.5176 43.0664 36.1673C43.0664 36.1673 43.0664 36.1672 43.0664 36.1672V23.3343C43.0664 23.1134 42.8873 22.9343 42.6664 22.9343H39.4581C39.2372 22.9343 39.0581 23.1134 39.0581 23.3343V35.0168L21.8127 45.0772L4.56725 35.0168V14.86L21.8127 4.80124L40.0522 15.441C40.1438 15.4944 40.253 15.5093 40.3556 15.4823C40.4582 15.4553 40.5458 15.3886 40.5993 15.297L42.2162 12.5251C42.3275 12.3343 42.2631 12.0893 42.0723 11.978L22.8228 0.749132C22.8227 0.749122 22.8227 0.749112 22.8227 0.749102C22.5162 0.570231 22.1676 0.475977 21.8127 0.475977C21.4578 0.475977 21.1092 0.570231 20.8026 0.749102C20.8026 0.749112 20.8026 0.749122 20.8026 0.749132L1.55308 11.978L1.55303 11.978C1.25045 12.1546 0.999443 12.4074 0.825027 12.7112C0.65063 13.015 0.558901 13.3592 0.558984 13.7095C0.558984 13.7095 0.558984 13.7096 0.558984 13.7096V36.1672C0.558984 36.1672 0.558984 36.1673 0.558984 36.1673C0.5589 36.5176 0.650628 36.8618 0.825027 37.1656C0.999443 37.4694 1.25045 37.7222 1.55303 37.8988L1.55308 37.8988L20.8026 49.1277L20.8027 49.1277C21.1093 49.3065 21.4578 49.4006 21.8127 49.4004ZM21.8127 49.4004C21.8126 49.4004 21.8125 49.4004 21.8124 49.4004L21.8127 49.0004L21.813 49.4004C21.8129 49.4004 21.8128 49.4004 21.8127 49.4004Z" fill="url(#paint2_linear_644_370)" stroke="url(#paint3_linear_644_370)" stroke-width="0.8" stroke-linejoin="round"/>
<defs>
<linearGradient id="paint0_linear_644_370" x1="30.5444" y1="26.5248" x2="20.3535" y2="28.8677" gradientUnits="userSpaceOnUse">
<stop offset="0.109896" stop-color="#9D65C9"/>
<stop offset="0.328646" stop-color="#F6851B"/>
<stop offset="0.620312" stop-color="#E85AFF"/>
<stop offset="0.859896" stop-color="#F6851B"/>
</linearGradient>
<linearGradient id="paint1_linear_644_370" x1="30.5444" y1="26.5248" x2="20.3535" y2="28.8677" gradientUnits="userSpaceOnUse">
<stop offset="0.109896" stop-color="#9D65C9"/>
<stop offset="0.328646" stop-color="#F6851B"/>
<stop offset="0.620312" stop-color="#E85AFF"/>
<stop offset="0.859896" stop-color="#F6851B"/>
</linearGradient>
<linearGradient id="paint2_linear_644_370" x1="40.7311" y1="28.0159" x2="18.9205" y2="33.6136" gradientUnits="userSpaceOnUse">
<stop offset="0.109896" stop-color="#9D65C9"/>
<stop offset="0.328646" stop-color="#F6851B"/>
<stop offset="0.620312" stop-color="#E85AFF"/>
<stop offset="0.859896" stop-color="#F6851B"/>
</linearGradient>
<linearGradient id="paint3_linear_644_370" x1="40.7311" y1="28.0159" x2="18.9205" y2="33.6136" gradientUnits="userSpaceOnUse">
<stop offset="0.109896" stop-color="#9D65C9"/>
<stop offset="0.328646" stop-color="#F6851B"/>
<stop offset="0.620312" stop-color="#E85AFF"/>
<stop offset="0.859896" stop-color="#F6851B"/>
</linearGradient>
</defs>
</svg>
