<svg width="30" height="35" viewBox="0 0 30 35" fill="none" xmlns="http://www.w3.org/2000/svg">
<path d="M12.6667 18.0018L9.82178 15.1569C9.72415 15.0593 9.56586 15.0593 9.46823 15.1569L7.82322 16.8019C7.77634 16.8488 7.75 16.9124 7.75 16.9787C7.75 17.045 7.77634 17.1086 7.82322 17.1554L12.4899 21.8221C12.5875 21.9197 12.7458 21.9197 12.8434 21.8221L22.1768 12.4888C22.2744 12.3911 22.2744 12.2328 22.1768 12.1352L20.5318 10.4902C20.4849 10.4433 20.4213 10.417 20.355 10.417C20.2887 10.417 20.2251 10.4433 20.1782 10.4902L12.6667 18.0018Z" fill="black" stroke="black" stroke-width="0.5" stroke-linejoin="round"/>
<path d="M15.1176 34.2213C15.0441 34.2605 14.9559 34.2605 14.8824 34.2213L7.67726 30.3796C5.58307 29.2654 3.83179 27.6021 2.61138 25.568C1.39098 23.5339 0.74751 21.2059 0.750007 18.8339M15.1176 34.2213L0.750007 18.8337C0.750007 18.8338 0.750007 18.8338 0.750007 18.8339M15.1176 34.2213L22.3228 30.3796M15.1176 34.2213L22.3228 30.3796M0.750007 18.8339V3.66732V3.66707C0.750691 2.9822 1.02306 2.32558 1.50733 1.84131C1.99161 1.35703 2.64823 1.08467 3.33309 1.08398L3.33334 1.08398L26.6667 1.08398H26.667C27.3518 1.08467 28.0084 1.35703 28.4927 1.84131C28.977 2.32558 29.2494 2.9822 29.25 3.66707L29.25 3.66732L29.25 18.8337L29.25 18.834M0.750007 18.8339L22.2054 30.1588C24.2595 29.066 25.9772 27.4345 27.1743 25.4394C28.3714 23.4442 29.0025 21.1607 29 18.834H29.25M29.25 18.834C29.2525 21.206 28.609 23.534 27.3887 25.568C26.1683 27.6021 24.417 29.2654 22.3228 30.3796M29.25 18.834L22.3228 30.3796M3.58334 3.91732H26.4167L26.4167 18.834L26.4167 18.8343C26.4188 20.6928 25.9147 22.5169 24.9584 24.1106C24.0022 25.7043 22.6299 27.0074 20.989 27.8801L20.9888 27.8802L15 31.0725L9.01131 27.8791L9.01107 27.879C7.37032 27.0063 5.99817 25.7034 5.04193 24.1099C4.08569 22.5164 3.58145 20.6926 3.58334 18.8343V18.834V3.91732Z" fill="black" stroke="black" stroke-width="0.5" stroke-linejoin="round"/>
</svg>
