<svg width="47" height="49" viewBox="0 0 47 49" fill="none" xmlns="http://www.w3.org/2000/svg">
<path d="M9.33333 48.9997C6.76667 48.9997 4.56944 48.0858 2.74167 46.258C0.913889 44.4302 0 42.233 0 39.6663V16.333C0 13.7663 0.913889 11.5691 2.74167 9.74134C4.56944 7.91356 6.76667 6.99967 9.33333 6.99967V6.99967C10.622 6.99967 11.6667 5.95501 11.6667 4.66634V4.66634C11.6667 4.00523 11.8907 3.45067 12.3387 3.00267C12.7851 2.55623 13.3389 2.33301 14 2.33301C14.6611 2.33301 15.2157 2.55623 15.6637 3.00267C16.1101 3.45067 16.3333 4.00523 16.3333 4.66634V4.66634C16.3333 5.95501 17.378 6.99967 18.6667 6.99967V6.99967C19.9553 6.99967 21 5.95501 21 4.66634V4.66634C21 4.00523 21.224 3.45067 21.672 3.00267C22.1184 2.55623 22.6722 2.33301 23.3333 2.33301C23.9944 2.33301 24.549 2.55623 24.997 3.00267C25.4434 3.45067 25.6667 4.00523 25.6667 4.66634V6.99967V6.99967C25.6667 9.577 27.8958 11.1624 30.2747 12.1541C30.8724 12.4033 31.4445 12.7775 32.0056 13.3386C33.8333 15.1663 32.6667 13.7663 32.6667 16.333V27.9997C32.6667 29.2883 33.7113 30.333 35 30.333V30.333C36.2887 30.333 37.3333 31.3777 37.3333 32.6663V39.6663C37.3333 42.233 36.4194 44.4302 34.5917 46.258C32.7639 48.0858 30.5667 48.9997 28 48.9997H9.33333ZM9.33333 44.333H28C29.2833 44.333 30.3823 43.8765 31.297 42.9633C32.2101 42.0487 32.6667 40.9497 32.6667 39.6663V16.333C32.6667 15.0497 32.9187 14.2517 32.0056 13.3386C31.0909 12.4239 29.2833 11.6663 28 11.6663H9.33333C8.05 11.6663 6.95178 12.1237 6.03867 13.0383C5.124 13.9515 4.66667 15.0497 4.66667 16.333V39.6663C4.66667 40.9497 5.124 42.0487 6.03867 42.9633C6.95178 43.8765 8.05 44.333 9.33333 44.333ZM11.6667 20.9997H25.6667C26.3278 20.9997 26.8823 20.7757 27.3303 20.3277C27.7768 19.8812 28 19.3275 28 18.6663C28 18.0052 27.7768 17.4507 27.3303 17.0027C26.8823 16.5562 26.3278 16.333 25.6667 16.333H11.6667C11.0056 16.333 10.4518 16.5562 10.0053 17.0027C9.55733 17.4507 9.33333 18.0052 9.33333 18.6663C9.33333 19.3275 9.55733 19.8812 10.0053 20.3277C10.4518 20.7757 11.0056 20.9997 11.6667 20.9997ZM18.6667 39.6663C20.3 39.6663 21.6806 39.1126 22.8083 38.005C23.9361 36.8959 24.5 35.5441 24.5 33.9497C24.5 32.9386 24.2768 32.0636 23.8303 31.3247C23.3823 30.5858 22.4778 29.4386 21.1167 27.883L19.5417 26.0747C19.3083 25.8025 19.0167 25.6663 18.6667 25.6663C18.3167 25.6663 18.025 25.8025 17.7917 26.0747L16.2167 27.883C14.8556 29.4775 13.9518 30.6348 13.5053 31.355C13.0573 32.0737 12.8333 32.9386 12.8333 33.9497C12.8333 35.5441 13.3972 36.8959 14.525 38.005C15.6528 39.1126 17.0333 39.6663 18.6667 39.6663Z" fill="url(#paint0_linear_619_424)"/>
<path d="M38.4997 28C37.8386 28 37.284 27.7768 36.836 27.3303V27.3303C36.1175 26.6093 35.3412 25.6667 34.3232 25.6667H32.6663C32.0052 25.6667 31.4507 25.4434 31.0027 24.997C30.5562 24.549 30.333 23.9944 30.333 23.3333C30.333 22.6722 30.5562 22.1177 31.0027 21.6697C31.4507 21.2232 32.0052 21 32.6663 21H39.6663C40.955 21 41.9997 19.9553 41.9997 18.6667V18.6667C41.9997 17.378 40.955 16.3333 39.6663 16.3333H32.6663C32.0052 16.3333 31.4507 16.1101 31.0027 15.6637C30.5562 15.2157 30.333 14.6611 30.333 14V4.66667C30.333 4.00556 30.5562 3.451 31.0027 3.003C31.4507 2.55656 32.0052 2.33333 32.6663 2.33333H34.3232C35.3412 2.33333 36.1175 1.39069 36.836 0.669667V0.669667C37.284 0.223223 37.8386 0 38.4997 0C39.1608 0 39.7153 0.223223 40.1633 0.669667V0.669667C40.8819 1.39069 41.6582 2.33333 42.6761 2.33333H44.333C44.9941 2.33333 45.5487 2.55656 45.9967 3.003C46.4431 3.451 46.6663 4.00556 46.6663 4.66667C46.6663 5.32778 46.4431 5.88156 45.9967 6.328C45.5487 6.776 44.9941 7 44.333 7H37.333C36.0443 7 34.9997 8.04467 34.9997 9.33333V9.33333C34.9997 10.622 36.0443 11.6667 37.333 11.6667H44.333C44.9941 11.6667 45.5487 11.8899 45.9967 12.3363C46.4431 12.7843 46.6663 13.3389 46.6663 14V23.3333C46.6663 23.9944 46.4431 24.549 45.9967 24.997C45.5487 25.4434 44.9941 25.6667 44.333 25.6667H42.6761C41.6582 25.6667 40.8819 26.6093 40.1633 27.3303V27.3303C39.7153 27.7768 39.1608 28 38.4997 28Z" fill="url(#paint1_linear_619_424)"/>
<defs>
<linearGradient id="paint0_linear_619_424" x1="35.6011" y1="28.6508" x2="15.8977" y2="33.3188" gradientUnits="userSpaceOnUse">
<stop offset="0.109896" stop-color="#9D65C9"/>
<stop offset="0.328646" stop-color="#F6851B"/>
<stop offset="0.620312" stop-color="#E85AFF"/>
<stop offset="0.859896" stop-color="#F6851B"/>
</linearGradient>
<linearGradient id="paint1_linear_619_424" x1="45.9085" y1="15.7907" x2="37.0682" y2="17.3178" gradientUnits="userSpaceOnUse">
<stop offset="0.109896" stop-color="#9D65C9"/>
<stop offset="0.328646" stop-color="#F6851B"/>
<stop offset="0.620312" stop-color="#E85AFF"/>
<stop offset="0.859896" stop-color="#F6851B"/>
</linearGradient>
</defs>
</svg>
