<svg width="263" height="58" viewBox="0 0 263 58" fill="none" xmlns="http://www.w3.org/2000/svg">
<path d="M85.0407 44.3824V33.5098H100.448V25.3188H85.0407V19.9556H101.179V11.7158H75.8745V44.3824H85.0407V44.3824Z" fill="black"/>
<path d="M108.687 44.3824L110.784 38.0929H123.168L125.167 44.3824H135.21L123.899 11.7158H110.589L99.2285 44.3824H108.687V44.3824ZM114.05 28.1954L116.732 19.6631H117.415L119.999 28.1954L120.584 30.0969H113.417L114.05 28.1954V28.1954Z" fill="black"/>
<path d="M144.815 44.3824V30.7794L144.328 26.1476H144.961L147.594 30.7794L156.224 44.3824H165.975V11.7158H156.858V26.3914L157.345 30.3894H156.712L154.566 26.3914L145.449 11.7158H135.649V44.3824H144.815V44.3824Z" fill="black"/>
<path d="M183.674 44.3824C194.401 44.3824 200.3 38.3854 200.3 28.0491C200.3 17.7128 194.401 11.7158 183.674 11.7158H169.584V44.3824H183.674ZM183.187 19.9556C188.94 19.9556 190.403 21.1745 190.403 28.0491C190.403 34.9237 188.94 36.1426 183.187 36.1426H178.75V19.9556H183.187V19.9556Z" fill="black"/>
<path d="M208.589 44.3824L210.685 38.0929H223.069L225.068 44.3824H235.112L223.8 11.7158H210.49L199.13 44.3824H208.589V44.3824ZM213.952 28.1954L216.633 19.6631H217.316L219.9 28.1954L220.485 30.0969H213.318L213.952 28.1954V28.1954Z" fill="black"/>
<path d="M250.225 44.3824V33.266L262.999 11.7158H252.322L248.226 19.4193L246.081 24.2949H245.447L243.253 19.4193L239.158 11.7158H228.285L241.059 33.3635V44.3824H250.225V44.3824Z" fill="black"/>
<path fill-rule="evenodd" clip-rule="evenodd" d="M49.369 0L65.8253 28.5032L49.369 57.0064H16.4563L0 28.5032L16.4563 0H49.369ZM32.9127 11.7494L37.0858 23.2878C37.1166 23.3731 37.1723 23.4473 37.2457 23.5005C37.3192 23.5537 37.4069 23.584 37.4977 23.587L49.761 23.9904L40.0767 31.5249C40.0053 31.5806 39.9518 31.6565 39.9239 31.7426C39.8961 31.8291 39.8944 31.9215 39.9197 32.0088L43.3257 43.7966L33.1671 36.9149C33.092 36.8639 33.0034 36.8369 32.9127 36.8369C32.8219 36.8369 32.7333 36.8639 32.6582 36.9149L22.4996 43.7966L25.9056 32.0088C25.931 31.9215 25.9293 31.8291 25.9014 31.7426C25.8736 31.6565 25.82 31.5806 25.7487 31.5249L16.0643 23.9904L28.3277 23.587C28.4184 23.584 28.5062 23.5537 28.5796 23.5005C28.653 23.4473 28.7087 23.3731 28.7395 23.2878L32.9127 11.7494V11.7494Z" fill="black"/>
</svg>
