<svg width="38" height="33" viewBox="0 0 38 33" fill="none" xmlns="http://www.w3.org/2000/svg">
<path d="M32.5 12.8625H32.5001C33.9052 12.8607 35.2522 12.3018 36.2457 11.3082C37.2393 10.3147 37.7982 8.96766 37.8 7.56256V7.5625V3.625C37.8 3.59739 37.7776 3.575 37.75 3.575H33.8125H33.8124C32.4773 3.57697 31.1935 4.08534 30.2195 4.99606C29.536 3.77956 28.5435 2.76456 27.3418 2.054C26.1215 1.33248 24.7302 0.951249 23.3125 0.95H23.3125H19.375C19.3474 0.95 19.325 0.972386 19.325 1V4.9375V4.93756C19.3274 7.03863 20.1632 9.05295 21.6489 10.5386C23.1345 12.0243 25.1489 12.8601 27.2499 12.8625H27.25H28.5125V29.825H12.8625V23.3625H14.125H14.1251C15.5302 23.3607 16.8772 22.8018 17.8707 21.8082C18.8643 20.8147 19.4232 19.4677 19.425 18.0626V18.0625V14.125C19.425 14.0974 19.4026 14.075 19.375 14.075H15.4375H15.4374C14.1023 14.077 12.8185 14.5853 11.8444 15.4961C11.161 14.2796 10.1685 13.2646 8.96679 12.554C7.74652 11.8325 6.35516 11.4512 4.93754 11.45H4.9375H1C0.972386 11.45 0.95 11.4724 0.95 11.5L0.95 15.4375L0.95 15.4376C0.952447 17.5386 1.78818 19.553 3.27386 21.0386C4.75955 22.5243 6.77387 23.3601 8.87494 23.3625H8.875H10.1375V29.825H1C0.972386 29.825 0.95 29.8474 0.95 29.875V32.5C0.95 32.5276 0.972386 32.55 1 32.55H37.75C37.7776 32.55 37.8 32.5276 37.8 32.5V29.875C37.8 29.8474 37.7776 29.825 37.75 29.825H31.2375V12.8625H32.5ZM31.2375 8.87505C31.2382 8.19231 31.5097 7.53774 31.9925 7.05497C32.4752 6.5722 33.1298 6.30068 33.8125 6.3H35.075V7.5625C35.0743 8.24519 34.8028 8.89976 34.32 9.38253C33.8373 9.8653 33.1827 10.1368 32.5 10.1375H31.2375V8.87505ZM12.8625 19.375C12.8632 18.6923 13.1347 18.0377 13.6175 17.555C14.1002 17.0722 14.7548 16.8007 15.4375 16.8H16.7V18.0625C16.6993 18.7452 16.4278 19.3998 15.945 19.8825C15.4623 20.3653 14.8077 20.6368 14.125 20.6375H12.8625V19.375ZM10.1375 20.6375H8.87506C7.49645 20.6358 6.17479 20.0874 5.19996 19.1125C4.22513 18.1377 3.67672 16.8161 3.675 15.4374V14.175H4.93744C6.31605 14.1767 7.63771 14.7251 8.61254 15.7C9.58737 16.6748 10.1358 17.9964 10.1375 19.3751V20.6375ZM28.5125 10.1375H27.2501C25.8714 10.1358 24.5498 9.58737 23.575 8.61254C22.6001 7.63771 22.0517 6.31605 22.05 4.93744V3.675H23.3124C24.6911 3.67672 26.0127 4.22513 26.9875 5.19996C27.9624 6.17479 28.5108 7.49645 28.5125 8.87506V10.1375Z" fill="black" stroke="black" stroke-width="0.1" stroke-linejoin="round"/>
</svg>
